<svg width="50" height="50" viewBox="0 0 50 50" fill="none" xmlns="http://www.w3.org/2000/svg">
<path d="M42.1875 14.6875H7.8125C6.875 14.6875 6.25 15.3125 6.25 16.25V25C6.25 25.9375 6.875 26.5625 7.8125 26.5625H9.0625V42.1875C9.0625 43.125 9.6875 43.75 10.625 43.75H39.375C40.3125 43.75 40.9375 43.125 40.9375 42.1875V26.5625H42.1875C43.125 26.5625 43.75 25.9375 43.75 25V16.25C43.75 15.3125 43.125 14.6875 42.1875 14.6875ZM37.8125 26.5625V40.625H32.5V26.5625H37.8125ZM40.625 17.8125V23.125H32.1875V17.8125H40.625ZM29.0625 26.5625V40.625H20.9375V26.5625H29.0625ZM29.0625 17.8125V23.125H20.9375V17.8125H29.0625ZM17.5 26.5625V40.625H12.1875V26.5625H17.5ZM17.5 17.8125V23.125H9.375V17.8125H17.5Z" fill="black"/>
<path d="M26.25 13.125C26.875 13.4375 27.8125 13.125 28.4375 12.5C29.6875 10.3125 31.5625 7.8125 32.8125 7.8125C34.375 7.8125 34.375 8.75 34.375 9.0625C34.375 9.375 34.375 10.3125 33.125 10.3125C32.1875 10.3125 31.5625 10.9375 31.5625 11.875C31.5625 12.8125 32.1875 13.4375 33.125 13.4375C36.5625 13.4375 37.5 10.625 37.5 9.0625C37.5 7.5 36.25 4.6875 33.125 4.6875C29.375 4.6875 26.5625 9.6875 25.625 11.5625C25.3125 11.875 25.625 12.8125 26.25 13.125Z" fill="black"/>
<path d="M16.875 13.4375C17.8125 13.4375 18.4375 12.8125 18.4375 11.875C18.4375 10.9375 17.8125 10.3125 16.875 10.3125C15.9375 10.3125 15.9375 9.6875 15.9375 9.0625C15.9375 8.4375 15.9375 7.8125 16.875 7.8125C17.8125 7.8125 20.3125 10.625 21.25 12.5C21.25 12.8125 21.5625 13.125 22.1875 13.4375H22.5C22.8125 13.4375 23.125 13.4375 23.4375 13.125C24.0625 12.8125 24.375 11.875 24.0625 10.9375C24.0625 10.9375 24.0625 10.625 23.75 10.625C23.125 9.0625 20.3125 4.6875 16.875 4.6875C13.75 4.6875 12.8125 7.1875 12.8125 9.0625C12.8125 11.25 13.75 13.4375 16.875 13.4375Z" fill="black"/>
</svg>
