<svg width="40" height="40" viewBox="0 0 40 40" fill="none" xmlns="http://www.w3.org/2000/svg">
<g clip-path="url(#clip0)">
<path d="M18.7207 14.4962C19.6638 14.4962 21.7573 15.7653 22.1845 17.9592L25.6483 15.6507C25.6483 15.6507 23.922 12.6639 21.0301 11.4949V8.72408H17.5669V11.0924C13.4468 11.5397 12.9499 14.4395 12.9499 16.805C12.9499 22.6517 22.1845 22.483 22.1845 24.8855C22.1845 27.2884 20.7936 27.1943 18.7207 27.1943C16.6496 27.1943 16.4136 23.7314 16.4136 23.7314L12.9498 26.0402C12.9498 26.0402 14.5687 29.711 17.5668 30.5066V34.1207H21.03V30.4507C24.2752 29.808 25.6482 27.7173 25.6482 24.8855C25.6482 19.5142 16.4136 20.1542 16.4136 16.805C16.4136 14.6344 17.7793 14.4962 18.7207 14.4962ZM18.7207 0.643433C7.88291 0.643433 -0.90332 9.42954 -0.90332 20.2683C-0.90332 31.1068 7.88291 39.8928 18.7207 39.8928C29.5604 39.8928 38.3459 31.1068 38.3459 20.2683C38.3459 9.42954 29.5604 0.643433 18.7207 0.643433ZM18.7207 36.4298C9.79598 36.4298 2.55987 29.1938 2.55987 20.2683C2.55987 11.3424 9.79598 4.10686 18.7207 4.10686C27.6472 4.10686 34.8839 11.3424 34.8839 20.2683C34.8839 29.1938 27.6472 36.4298 18.7207 36.4298Z" fill="black"/>
</g>
<defs>
<clipPath id="clip0">
<rect width="40" height="40" fill="white"/>
</clipPath>
</defs>
</svg>
