<svg width="50" height="50" viewBox="0 0 50 50" fill="none" xmlns="http://www.w3.org/2000/svg">
<path d="M31.2497 8.33337C35.6699 8.33337 39.9092 10.0893 43.0348 13.2149C46.1604 16.3405 47.9163 20.5798 47.9163 25C47.9163 29.4203 46.1604 33.6595 43.0348 36.7852C39.9092 39.9108 35.6699 41.6667 31.2497 41.6667C26.8294 41.6667 22.5902 39.9108 19.4646 36.7852C16.339 33.6595 14.583 29.4203 14.583 25C14.583 20.5798 16.339 16.3405 19.4646 13.2149C22.5902 10.0893 26.8294 8.33337 31.2497 8.33337ZM31.2497 12.5C27.9345 12.5 24.755 13.817 22.4108 16.1612C20.0666 18.5054 18.7497 21.6848 18.7497 25C18.7497 28.3152 20.0666 31.4947 22.4108 33.8389C24.755 36.1831 27.9345 37.5 31.2497 37.5C34.5649 37.5 37.7443 36.1831 40.0885 33.8389C42.4327 31.4947 43.7497 28.3152 43.7497 25C43.7497 21.6848 42.4327 18.5054 40.0885 16.1612C37.7443 13.817 34.5649 12.5 31.2497 12.5ZM29.1663 16.6667H32.2913V24.5417L37.1455 29.3959L34.9372 31.6042L29.1663 25.8334V16.6667ZM4.16634 37.5C3.61381 37.5 3.0839 37.2805 2.6932 36.8898C2.3025 36.4991 2.08301 35.9692 2.08301 35.4167C2.08301 34.8642 2.3025 34.3343 2.6932 33.9436C3.0839 33.5529 3.61381 33.3334 4.16634 33.3334H12.1455C12.7913 34.8125 13.6247 36.2084 14.583 37.5H4.16634ZM6.24967 27.0834C5.69714 27.0834 5.16724 26.8639 4.77654 26.4732C4.38583 26.0825 4.16634 25.5526 4.16634 25C4.16634 24.4475 4.38583 23.9176 4.77654 23.5269C5.16724 23.1362 5.69714 22.9167 6.24967 22.9167H10.5205L10.4163 25L10.5205 27.0834H6.24967ZM8.33301 16.6667C7.78047 16.6667 7.25057 16.4472 6.85987 16.0565C6.46917 15.6658 6.24967 15.1359 6.24967 14.5834C6.24967 14.0308 6.46917 13.5009 6.85987 13.1102C7.25057 12.7195 7.78047 12.5 8.33301 12.5H14.583C13.6247 13.7917 12.7913 15.1875 12.1455 16.6667H8.33301Z" fill="black"/>
</svg>
