<?xml version="1.0" encoding="utf-8"?>
<svg xmlns="http://www.w3.org/2000/svg" viewBox="0 0 24 24" fill="#000000"><path d="M 12 2 C 6.4889971 2 2 6.4889971 2 12 C 2 17.511003 6.4889971 22 12 22 C 17.511003 22 22 17.511003 22 12 C 22 6.4889971 17.511003 2 12 2 z M 12 4 C 16.430123 4 20 7.5698774 20 12 C 20 16.430123 16.430123 20 12 20 C 7.5698774 20 4 16.430123 4 12 C 4 7.5698774 7.5698774 4 12 4 z M 11.802734 6.0019531 C 11.53341 6.0105586 11.2605 6.0366563 10.984375 6.0820312 C 8.439375 6.5010312 6.4026406 8.6041563 6.0566406 11.160156 C 5.5016406 15.256156 9.08475 18.693859 13.21875 17.880859 C 15.39675 17.451859 17.188344 15.765 17.777344 13.625 C 18.152344 12.263 18.030891 10.963172 17.587891 9.8261719 L 12.707031 14.707031 C 12.317031 15.096031 11.682969 15.097031 11.292969 14.707031 L 9 12.414062 C 8.61 12.024062 8.61 11.39 9 11 C 9.39 10.61 10.024062 10.61 10.414062 11 L 12 12.585938 L 16.521484 8.0644531 C 15.381359 6.7563281 13.688004 5.9417148 11.802734 6.0019531 z" fill="#000000"/></svg>
