<svg width="30" height="30" viewBox="0 0 30 30" fill="none" xmlns="http://www.w3.org/2000/svg">
<path d="M15.0002 1.20001C7.38577 1.20001 1.2002 7.38559 1.2002 15C1.2002 22.6144 7.38577 28.8 15.0002 28.8C22.6146 28.8 28.8002 22.6144 28.8002 15C28.8002 7.38559 22.6146 1.20001 15.0002 1.20001ZM15.0002 2.40001C21.9661 2.40001 27.6002 8.03412 27.6002 15C27.6002 21.9659 21.9661 27.6 15.0002 27.6C8.0343 27.6 2.4002 21.9659 2.4002 15C2.4002 8.03412 8.0343 2.40001 15.0002 2.40001ZM15.0002 6.60001C14.5228 6.60001 14.065 6.78965 13.7274 7.12722C13.3898 7.46479 13.2002 7.92262 13.2002 8.40001C13.2002 8.8774 13.3898 9.33524 13.7274 9.6728C14.065 10.0104 14.5228 10.2 15.0002 10.2C15.4776 10.2 15.9354 10.0104 16.273 9.6728C16.6106 9.33524 16.8002 8.8774 16.8002 8.40001C16.8002 7.92262 16.6106 7.46479 16.273 7.12722C15.9354 6.78965 15.4776 6.60001 15.0002 6.60001ZM12.6002 12.6V13.8H13.2002H13.8002V21.6H13.2002H12.6002V22.8H13.2002H13.8002H16.2002H16.8002H17.4002V21.6H16.8002H16.2002V12.6H15.6002H13.2002H12.6002Z" fill="black"/>
</svg>
